<svg xmlns="http://www.w3.org/2000/svg" viewBox="0 0 128 128" width="100%" height="100%">
  <defs>
    <linearGradient id="healthGrad" x1="0%" y1="0%" x2="100%" y2="100%">
      <stop offset="0%" stop-color="#ff4b5c" />
      <stop offset="100%" stop-color="#ff7380" />
    </linearGradient>
  </defs>
  <!-- App Icon Rounded Squircle -->
  <rect x="8" y="8" width="112" height="112" rx="28" fill="url(#healthGrad)" />
  
  <!-- Heart & Pulse Wave -->
  <path d="M 64,95 L 61,90 C 44,75 32,64 32,50 C 32,38 41,30 52,30 C 59,30 65,34 68,39 C 71,34 77,30 84,30 C 95,30 104,38 104,50 C 104,64 92,75 75,90 Z" fill="#ffffff" />
  
  <!-- Embedded heartbeat line -->
  <path d="M 44,52 L 56,52 L 60,42 L 65,65 L 70,48 L 74,52 L 92,52" fill="none" stroke="#ff4b5c" stroke-width="4" stroke-linecap="round" stroke-linejoin="round" />
</svg>
