<svg xmlns="http://www.w3.org/2000/svg" viewBox="0 0 120 120" width="100%" height="100%">
  <defs>
    <linearGradient id="cdoGrad" x1="0%" y1="0%" x2="100%" y2="100%">
      <stop offset="0%" stop-color="#7c3aed" />
      <stop offset="100%" stop-color="#ff7380" />
    </linearGradient>
  </defs>
  <!-- Background circle -->
  <circle cx="60" cy="60" r="54" fill="url(#cdoGrad)" />
  
  <!-- Female Designer Avatar Shape -->
  <g transform="translate(10, 10)">
    <!-- Shoulders / Clothes -->
    <path d="M 16,84 C 16,70 34,62 50,62 C 66,62 84,70 84,84" fill="#ffffff" opacity="0.95" />
    <!-- Neck -->
    <rect x="44" y="48" width="12" height="18" fill="#ffdcb4" />
    <!-- Head / Face -->
    <circle cx="50" cy="38" r="18" fill="#ffdcb4" />
    <!-- Hair (Creative orange/brown ponytail or cut) -->
    <path d="M 32,32 C 32,20 42,14 50,14 C 58,14 68,20 68,32 C 68,36 66,42 66,42 C 66,42 64,26 50,26 C 36,26 34,42 34,42 Z" fill="#ea580c" />
    <path d="M 64,36 C 68,36 72,40 72,46 C 72,52 68,56 64,56" fill="none" stroke="#ea580c" stroke-width="4" stroke-linecap="round" />
  </g>
</svg>
