<svg xmlns="http://www.w3.org/2000/svg" viewBox="0 0 120 120" width="100%" height="100%">
  <defs>
    <linearGradient id="ceoGrad" x1="0%" y1="0%" x2="100%" y2="100%">
      <stop offset="0%" stop-color="#0066ff" />
      <stop offset="100%" stop-color="#00d4b2" />
    </linearGradient>
  </defs>
  <!-- Background circle -->
  <circle cx="60" cy="60" r="54" fill="url(#ceoGrad)" />
  
  <!-- Female Avatar Shape -->
  <g transform="translate(10, 10)">
    <!-- Shoulders / Clothes -->
    <path d="M 16,84 C 16,70 34,62 50,62 C 66,62 84,70 84,84" fill="#ffffff" opacity="0.9" />
    <!-- Neck -->
    <rect x="44" y="48" width="12" height="18" fill="#ffebd4" />
    <!-- Head / Face -->
    <circle cx="50" cy="38" r="18" fill="#ffebd4" />
    <!-- Hair (Dark Blue/Gray Professional Cut) -->
    <path d="M 30,34 C 30,22 40,16 50,16 C 60,16 70,22 70,34 C 70,36 68,44 68,44 C 68,44 64,30 50,30 C 36,30 32,44 32,44 Z" fill="#0f172a" />
    <!-- Glasses -->
    <rect x="38" y="34" width="10" height="6" rx="2" fill="none" stroke="#0f172a" stroke-width="2" />
    <rect x="52" y="34" width="10" height="6" rx="2" fill="none" stroke="#0f172a" stroke-width="2" />
    <line x1="48" y1="37" x2="52" y2="37" stroke="#0f172a" stroke-width="2" />
  </g>
</svg>
